<?xml version="1.0" encoding="UTF-8"?>
<svg id="layer" xmlns="http://www.w3.org/2000/svg" viewBox="0 0 600 74.3">
  <defs>
    <style>
      .cls-1 {
        fill: #06b6d4;
      }

      .cls-1, .cls-2 {
        fill-rule: evenodd;
        stroke-width: 0px;
      }

      .cls-2 {
        fill: #fff;
      }
    </style>
  </defs>
  <path class="cls-2" d="M186,31.3h-10.8v20.9c0,5.6,3.7,5.5,10.8,5.2v8.5c-14.5,1.7-20.2-2.3-20.2-13.6v-20.9h-8v-9.1h8v-11.7l9.4-2.8v14.5h10.8v9ZM227.2,22.2h9.4v43.6h-9.4v-6.3c-3.3,4.6-8.5,7.4-15.3,7.4-11.9,0-21.7-10-21.7-22.9s9.9-22.9,21.7-22.9c6.8,0,12,2.8,15.3,7.3v-6.2h0ZM213.4,58c7.9,0,13.8-5.8,13.8-14s-5.9-14-13.8-14-13.8,5.8-13.8,14c0,8.2,6,14,13.8,14h0ZM252.3,15.7c-3.3,0-6-2.8-6-6s2.7-6,6-6,6,2.7,6,6c.1,3.2-2.7,6-6,6h0ZM247.6,65.8V22.2h9.4v43.6h-9.4ZM267.9,65.8V2.1h9.4v63.7h-9.4ZM338.5,22.2h9.9l-13.7,43.6h-9.2l-9.1-29.4-9.2,29.4h-9.2l-13.7-43.6h9.9l8.5,30.1,9.2-30.1h9l9.1,30.1,8.5-30.1ZM360.2,15.7c-3.3,0-6-2.8-6-6s2.7-6,6-6,6,2.7,6,6-2.7,6-6,6h0ZM355.4,65.8V22.2h9.4v43.6h-9.4ZM398.7,21.1c9.8,0,16.8,6.6,16.8,18v26.8h-9.4v-25.9c0-6.6-3.8-10.1-9.8-10.1s-11.1,3.7-11.1,12.6v23.4h-9.4V22.3h9.4v5.6c2.9-4.6,7.6-6.8,13.5-6.8h0ZM460.1,4.8h9.4v61.1h-9.4v-6.3c-3.3,4.6-8.5,7.4-15.3,7.4-11.9,0-21.7-10-21.7-22.9s9.9-22.9,21.7-22.9c6.8,0,12,2.8,15.3,7.3V4.8ZM446.4,58c7.9,0,13.8-5.8,13.8-14s-5.9-14-13.8-14-13.8,5.8-13.8,14,5.9,14,13.8,14h0ZM501.1,67c-13.2,0-23-10-23-22.9s9.9-22.9,23-22.9c8.6,0,16,4.4,19.5,11.3l-8.1,4.7c-1.9-4.1-6.2-6.7-11.4-6.7-7.7,0-13.5,5.8-13.5,13.7s5.8,13.7,13.5,13.7c5.2,0,9.5-2.7,11.6-6.7l8.1,4.6c-3.7,6.7-11.1,11.2-19.7,11.2h0ZM536.3,34.3c0,7.9,23.5,3.1,23.5,19.3,0,8.7-7.6,13.4-17,13.4-8.7,0-15-3.9-17.8-10.2l8.1-4.7c1.4,3.9,4.9,6.3,9.7,6.3,4.2,0,7.4-1.4,7.4-4.9,0-7.8-23.5-3.4-23.5-19,0-8.2,7.1-13.3,16-13.3,7.2,0,13.1,3.3,16.1,9.1l-7.9,4.4c-1.6-3.4-4.6-5-8.2-5-3.4-.1-6.4,1.4-6.4,4.6h0ZM576.5,34.3c0,7.9,23.5,3.1,23.5,19.3,0,8.7-7.6,13.4-17,13.4-8.7,0-15-3.9-17.8-10.2l8.1-4.7c1.4,3.9,4.9,6.3,9.7,6.3,4.2,0,7.4-1.4,7.4-4.9,0-7.8-23.5-3.4-23.5-19,0-8.2,7.1-13.3,16-13.3,7.2,0,13.1,3.3,16.1,9.1l-7.9,4.4c-1.6-3.4-4.6-5-8.2-5-3.4-.1-6.4,1.4-6.4,4.6h0Z"/>
  <path class="cls-1" d="M62,0c-16.5,0-26.9,8.3-31,24.8,6.2-8.3,13.4-11.4,21.7-9.3,4.7,1.2,8.1,4.6,11.8,8.4,6.1,6.2,13.1,13.3,28.5,13.3,16.5,0,26.9-8.3,31-24.8-6.2,8.3-13.4,11.4-21.7,9.3-4.7-1.2-8.1-4.6-11.8-8.4-6.1-6.2-13.1-13.3-28.5-13.3h0ZM31,37.1c-16.5,0-26.9,8.3-31,24.8,6.2-8.3,13.4-11.4,21.7-9.3,4.7,1.2,8.1,4.6,11.8,8.4,6.1,6.2,13.1,13.3,28.5,13.3,16.5,0,26.9-8.3,31-24.8-6.2,8.3-13.4,11.4-21.7,9.3-4.7-1.2-8.1-4.6-11.8-8.4-6.1-6.1-13.1-13.3-28.5-13.3h0Z"/>
</svg>